<svg preserveAspectRatio="none" overflow="visible" style="display: block;" width="100" height="28" viewBox="0 0 100 28" fill="none" xmlns="http://www.w3.org/2000/svg">
<g id="Logo" clip-path="url(#clip0_0_4)">
<path id="Vector" d="M6.14886 0.0169604L0 5.84237L20.1271 5.84186V0.0169604H6.14886ZM6.14886 14.3436V5.84237L0 11.5623V17.3347L3.07443 20.1685L13.7556 20.168L20.1271 14.3431L6.14886 14.3436Z" fill="#4FF7BC"/>
<path id="Vector_2" d="M92.9042 0H96.4072V20.2217H92.9042V0ZM99.8155 5.05544H99.9733V8.78383H96.4072L99.8155 5.05544Z" fill="white"/>
<path id="Vector_3" d="M78.2648 0H81.7678V20.2217H78.2648V0ZM86.8803 8.78383H81.7678L85.2076 5.05544H88.679L90.3833 6.91963V20.2217H86.8803V8.78383Z" fill="white"/>
<path id="Vector_4" d="M63.6263 18.3575V6.91954L65.3305 5.05536H68.8019L72.2417 8.78375H67.1292V16.4933H68.8019L72.2417 20.2217H65.3305L63.6263 18.3575ZM63.6263 25.9407V22.7494H67.1292V24.0764H72.2417V5.05536H75.7447V25.9407L74.0407 27.8048H65.3305L63.6263 25.9407Z" fill="white"/>
<path id="Vector_5" d="M57.5862 5.05544H61.0892V20.2217H57.5862V5.05544ZM57.5862 0H61.0892V3.79158H57.5862V0Z" fill="white"/>
<path id="Vector_6" d="M43.1881 18.3575V15.1662H46.6911V16.4933H51.8034V17.1568L43.1881 9.92121V6.91954L44.8922 5.05536H53.6023L55.3064 6.91954V10.1108H51.8034V8.78375H46.6911V8.1834L55.3064 15.4506V18.3575L53.6023 20.2217H44.8922L43.1881 18.3575Z" fill="white"/>
<path id="Vector_7" d="M28.8015 5.05536H32.3044V20.2217H28.8015V5.05536ZM37.4169 8.78375H32.3044L35.7443 5.05536H39.2157L40.9199 6.91954V20.2217H37.4169V8.78375Z" fill="white"/>
<path id="Vector_8" d="M22.761 5.05544H26.264V20.2217H22.761V5.05544ZM22.761 0H26.264V3.79158H22.761V0Z" fill="white"/>
</g>
<defs>
<clipPath id="clip0_0_4">
<rect width="100" height="28" fill="white"/>
</clipPath>
</defs>
</svg>
